# xmcd
#
# Track frame offsets: 
#        183
#        14775
#        27758
#        40935
#        54055
#        66025
#        78240
#        90923
#        102213
#        115083
#        129695
#        143193
#        158795
#        171043
#        184998
#        196500
#        208250
#        219805
#        233333
#        248073
#        259305
#        270818
#
# Disc length: 3772 seconds
#
# Revision: 1
# Processed by: cddbd v1.5.2PL0 Copyright (c) Steve Scherf et al.
# Submitted via: ExactAudioCopy v1.3
#
DISCID=190eba16
DTITLE=Bo Diddley - Bo's Blues
DYEAR=1993
DGENRE=Blues
TTITLE0=Down Home Special (1956)
TTITLE1=You Don't Love Me  (1955)
TTITLE2=Blues Blues (1958)
TTITLE3=500% More Man (1965)
TTITLE4=Live My Life (1960)
TTITLE5=She's Fine, She's Mine (1955)
TTITLE6=Heart-O-Matic Love (1955)
TTITLE7=Bring It to Jerome (1955)
TTITLE8=Pretty Thing (1955)
TTITLE9=You Can't Judge a Book by Its Cover (1962)
TTITLE10=The Clock Strikes Twelve (1958)
TTITLE11=Cops and Robbers (1954)
TTITLE12=Run Diddley Daddy (1959)
TTITLE13=Before You Accuse Me (1957)
TTITLE14=Diddy Wah Diddy (1955)
TTITLE15=Bo's Blues (1961)
TTITLE16=Little Girl (1955)
TTITLE17=I'm a Man (1955)
TTITLE18=I'm Bad (1956)
TTITLE19=Who Do You Love? (1956)
TTITLE20=I'm Looking for a Woman (1955)
TTITLE21=Two Files (1961)
EXTD=
EXTT0=
EXTT1=
EXTT2=
EXTT3=
EXTT4=
EXTT5=
EXTT6=
EXTT7=
EXTT8=
EXTT9=
EXTT10=
EXTT11=
EXTT12=
EXTT13=
EXTT14=
EXTT15=
EXTT16=
EXTT17=
EXTT18=
EXTT19=
EXTT20=
EXTT21=
PLAYORDER=
